<svg xmlns="http://www.w3.org/2000/svg" width="20" height="20" viewBox="0 0 20 20"><path d="M12,2c5.522,0,10,3.978,10,8.889a5.558,5.558,0,0,1-5.556,5.556H14.478a1.66,1.66,0,0,0-1.245,2.767A1.667,1.667,0,0,1,12,22,10,10,0,0,1,12,2ZM10.811,18.111a3.664,3.664,0,0,1,3.667-3.667h1.967A3.558,3.558,0,0,0,20,10.889C20,7.139,16.468,4,12,4a8,8,0,0,0-.676,15.972A3.648,3.648,0,0,1,10.811,18.111ZM7.5,12A1.5,1.5,0,1,1,9,10.5,1.5,1.5,0,0,1,7.5,12Zm9,0A1.5,1.5,0,1,1,18,10.5,1.5,1.5,0,0,1,16.5,12ZM12,9a1.5,1.5,0,1,1,1.5-1.5A1.5,1.5,0,0,1,12,9Z" transform="translate(-2 -2)"/></svg>