<svg xmlns="http://www.w3.org/2000/svg" width="13.8" height="16" viewBox="0 0 13.8 16"><path d="M9.916,1.41h0A6.494,6.494,0,0,0,4.56,3.756,9.1,9.1,0,0,0,2.91,9.415h0A9.069,9.069,0,0,0,4.56,15.064,6.513,6.513,0,0,0,9.924,17.41h0a6.292,6.292,0,0,0,4.761-1.771A4.36,4.36,0,0,0,15.7,10.833a4.2,4.2,0,0,0-2.248-2.142c-.137-2.254-1.405-3.57-3.49-3.583A3.513,3.513,0,0,0,6.942,6.684l1.251.858a2.007,2.007,0,0,1,1.764-.9,1.833,1.833,0,0,1,1.93,1.6,8.868,8.868,0,0,0-1.877-.08C8.016,8.277,6.71,9.456,6.8,11.09a2.949,2.949,0,0,0,3.318,2.554,3.5,3.5,0,0,0,3.267-3.265,2.421,2.421,0,0,1,.94,1.068,2.813,2.813,0,0,1-.692,3.1,4.841,4.841,0,0,1-3.71,1.331A5.065,5.065,0,0,1,5.737,14.1,7.581,7.581,0,0,1,4.418,9.41,7.581,7.581,0,0,1,5.737,4.716,5.065,5.065,0,0,1,9.92,2.946a5.237,5.237,0,0,1,4.258,1.78,5.956,5.956,0,0,1,1.067,2.2l1.465-.391a7.485,7.485,0,0,0-1.371-2.79A6.687,6.687,0,0,0,9.916,1.41ZM10.094,9.7a7.08,7.08,0,0,1,1.837.118c-.106,1.191-.6,2.226-1.9,2.3-.84.047-1.69-.328-1.731-1.1C8.272,10.43,8.7,9.776,10.094,9.7Z" transform="translate(-2.91 -1.41)"/></svg>