<svg xmlns="http://www.w3.org/2000/svg" width="14.234" height="16" viewBox="0 0 14.234 16"><path d="M5.321,15.666A3.335,3.335,0,0,1,4.62,15c-.089-.106-.449-.558-.38-.472a2.211,2.211,0,0,0-.861-.774.815.815,0,0,1,.55-1.535,3.517,3.517,0,0,1,1.587,1.294c-.077-.1.277.348.353.439a1.945,1.945,0,0,0,.358.357,1.52,1.52,0,0,0,.938.114,3.755,3.755,0,0,1,.165-.893c-2.419-.591-3.789-2.152-3.789-5.214A4.454,4.454,0,0,1,4.4,5.636a4.233,4.233,0,0,1,.246-2.6.815.815,0,0,1,.513-.475,1.148,1.148,0,0,1,.17-.038,4.363,4.363,0,0,1,2.784.894,9.666,9.666,0,0,1,4.378,0,4.3,4.3,0,0,1,2.789-.894,1.166,1.166,0,0,1,.177.042.815.815,0,0,1,.5.472,4.233,4.233,0,0,1,.246,2.6,4.429,4.429,0,0,1,.862,2.684c0,3.062-1.365,4.618-3.784,5.211a3.905,3.905,0,0,1,.156,1.125c0,.542,0,1.059-.006,1.639,0,.155,0,.321,0,.575a.815.815,0,0,1-.015,1.6A1.276,1.276,0,0,1,11.8,17.222c0-.074,0-.179,0-.364,0-.255,0-.42,0-.575,0-.577.006-1.09.006-1.628a1.464,1.464,0,0,0-.347-1.109.815.815,0,0,1,.441-1.427c2.418-.272,3.535-1.208,3.535-3.8A2.8,2.8,0,0,0,14.7,6.36a.815.815,0,0,1-.154-.852,2.24,2.24,0,0,0,.078-1.315l-.008,0a5.488,5.488,0,0,0-1.515.773.815.815,0,0,1-.679.111,7.985,7.985,0,0,0-4.226,0,.815.815,0,0,1-.676-.109A5.588,5.588,0,0,0,5.995,4.2a2.214,2.214,0,0,0,.075,1.31.815.815,0,0,1-.154.852,2.818,2.818,0,0,0-.744,1.96c0,2.585,1.118,3.528,3.523,3.8a.815.815,0,0,1,.444,1.425,1.7,1.7,0,0,0-.35,1.112v2.567a1.28,1.28,0,0,1-1.6,1.246.815.815,0,0,1-.033-1.6v-.807A2.875,2.875,0,0,1,5.321,15.666Z" transform="translate(-2.839 -2.497)"/></svg>