<svg xmlns="http://www.w3.org/2000/svg" width="1372.301" height="361.416" viewBox="0 0 1372.301 361.416"><g transform="translate(-18168.584 -4348)"><path d="M220.708-690.008a47.528,47.528,0,0,0,34.909-14.375,47.528,47.528,0,0,0,14.374-34.909A47.528,47.528,0,0,0,255.617-774.2a47.528,47.528,0,0,0-34.909-14.375A47.528,47.528,0,0,0,185.8-774.2a47.528,47.528,0,0,0-14.374,34.909A47.527,47.527,0,0,0,185.8-704.383,47.528,47.528,0,0,0,220.708-690.008Zm0,32.856q-34.088,0-58.114-24.026t-24.026-58.114q0-34.088,24.026-58.114t58.114-24.026q34.088,0,58.114,24.026t24.026,58.114q0,34.088-24.026,58.114T220.708-657.152ZM56.428-722.864a15.9,15.9,0,0,1-11.7-4.723A15.9,15.9,0,0,1,40-739.292,15.9,15.9,0,0,1,44.723-751a15.9,15.9,0,0,1,11.7-4.723H89.284a15.9,15.9,0,0,1,11.7,4.723,15.9,15.9,0,0,1,4.723,11.7,15.9,15.9,0,0,1-4.723,11.7,15.9,15.9,0,0,1-11.7,4.723Zm295.7,0a15.9,15.9,0,0,1-11.7-4.723,15.9,15.9,0,0,1-4.723-11.7,15.9,15.9,0,0,1,4.723-11.7,15.9,15.9,0,0,1,11.7-4.723h32.856a15.9,15.9,0,0,1,11.7,4.723,15.9,15.9,0,0,1,4.723,11.7,15.9,15.9,0,0,1-4.723,11.7,15.9,15.9,0,0,1-11.7,4.723ZM220.708-854.288a15.9,15.9,0,0,1-11.7-4.723,15.9,15.9,0,0,1-4.723-11.7v-32.856a15.9,15.9,0,0,1,4.723-11.7,15.9,15.9,0,0,1,11.7-4.723,15.9,15.9,0,0,1,11.7,4.723,15.9,15.9,0,0,1,4.723,11.7v32.856a15.9,15.9,0,0,1-4.723,11.7A15.9,15.9,0,0,1,220.708-854.288Zm0,295.7a15.9,15.9,0,0,1-11.7-4.723,15.9,15.9,0,0,1-4.723-11.7v-32.856a15.9,15.9,0,0,1,4.723-11.7,15.9,15.9,0,0,1,11.7-4.723,15.9,15.9,0,0,1,11.7,4.723,15.9,15.9,0,0,1,4.723,11.7v32.856a15.9,15.9,0,0,1-4.723,11.7A15.9,15.9,0,0,1,220.708-558.584ZM116.39-820.611,98.73-837.86a14.3,14.3,0,0,1-4.723-11.5,17.817,17.817,0,0,1,4.723-11.91,16.227,16.227,0,0,1,11.91-4.928,14.914,14.914,0,0,1,11.5,4.928l17.249,17.66a16.483,16.483,0,0,1,4.518,11.5,16.483,16.483,0,0,1-4.518,11.5,14.063,14.063,0,0,1-11.294,4.723A17.568,17.568,0,0,1,116.39-820.611Zm202.886,203.3-17.249-17.66a16.738,16.738,0,0,1-4.518-11.7,15.324,15.324,0,0,1,4.518-11.294A14.063,14.063,0,0,1,313.32-662.7a17.568,17.568,0,0,1,11.7,4.723l17.66,17.249a14.3,14.3,0,0,1,4.723,11.5,17.817,17.817,0,0,1-4.723,11.91,16.227,16.227,0,0,1-11.91,4.928A14.914,14.914,0,0,1,319.276-617.315Zm-17.249-203.3A14.063,14.063,0,0,1,297.3-831.9a17.568,17.568,0,0,1,4.723-11.7l17.249-17.66a14.3,14.3,0,0,1,11.5-4.723,17.817,17.817,0,0,1,11.91,4.723,16.227,16.227,0,0,1,4.928,11.91,14.914,14.914,0,0,1-4.928,11.5l-17.66,17.249a16.483,16.483,0,0,1-11.5,4.518A16.483,16.483,0,0,1,302.026-820.611Zm-203.3,203.3a16.227,16.227,0,0,1-4.928-11.91,14.914,14.914,0,0,1,4.928-11.5l17.66-17.249a16.738,16.738,0,0,1,11.7-4.518,15.324,15.324,0,0,1,11.294,4.518,14.063,14.063,0,0,1,4.723,11.294,17.568,17.568,0,0,1-4.723,11.7l-17.249,17.66a14.3,14.3,0,0,1-11.5,4.723A17.817,17.817,0,0,1,98.73-617.315ZM220.708-739.292Z" transform="translate(18128.584 5268)"/><path d="M33.276-188.376l-21.15-3.666v-17.484H53.3q9.306,0,25.1-1.128,3.666-.282,11.139-.564t13.395-.282q51.888,0,77.691,25.944t25.8,73.6q0,33.276-12.831,59.22T157.074-12.267Q133.386,2.256,101.8,2.256q-8.178,0-25.662-1.128Q59.784,0,53.862,0H11V-16.92l22.278-2.82ZM74.166-18.894q9.588,2.538,26.79,2.538,28.2-.564,44.274-22.7T161.3-105.468q0-42.018-15.792-65T96.444-193.452a101.4,101.4,0,0,0-13.395.846q-6.345.846-8.883,1.128Zm224.19,22q-37.224,0-55.413-21.855T224.754-78.4q0-25.38,9.447-43.992A66.82,66.82,0,0,1,260.85-150.87q17.2-9.87,39.762-9.87,28.2,0,43.428,14.805t15.792,42.159q0,18.612-2.256,27.636h-91.65q1.128,25.662,12.126,39.9T309.354-22a75.775,75.775,0,0,0,22.7-3.666q11.7-3.666,18.471-8.742l7.05,15.51Q349.962-10.716,332.9-3.807A91.329,91.329,0,0,1,298.356,3.1Zm22-96.162q.564-7.9.564-12.126,0-37.506-25.1-37.506-13.818,0-21.432,11t-8.46,38.634Zm81.5-41.736H378.162v-15.792l23.688-5.64v-12.408a61.071,61.071,0,0,1,9.729-33.558,70.032,70.032,0,0,1,26.085-24.111,71.615,71.615,0,0,1,34.686-8.883,56.711,56.711,0,0,1,18.048,2.82v36.1q-2.82-2.82-11.139-5.64a53.653,53.653,0,0,0-17.343-2.82q-11,0-15.651,5.5t-4.653,18.753v23.97h35.814V-134.8H441.612v115.62l29.61,2.256V0h-91.65V-16.92l22.278-2.538Zm129.156-47.658q-10.152,0-16.074-5.922T509.01-203.6q0-10.716,6.768-17.766t18.048-7.05q11.28,0,17.2,6.063a20.735,20.735,0,0,1,5.922,15.087q0,11.28-6.768,18.048t-18.894,6.768ZM516.06-130l-20.022-5.358v-18.894l51.606-6.2h.564l7.9,5.64V-19.176L575-16.92V0H496.32V-16.92l19.74-2.538Zm95.034,0-18.048-5.076v-19.458l46.812-5.922h.846l7.05,5.64v11l-.282,6.768q9.87-9.306,25.662-16.074A80.259,80.259,0,0,1,705-159.894q17.2,0,26.931,6.345t13.959,19.881q4.23,13.536,4.23,36.66v77.832l17.2,2.256V0H694.566V-16.92l15.228-2.256V-97.008q0-14.664-1.974-22.983t-7.191-12.126q-5.217-3.807-14.8-3.807-16.074,0-34.4,13.818V-19.458l16.92,2.538V0h-73.6V-16.92l16.356-2.538ZM858.408,3.1Q821.184,3.1,803-18.753T784.806-78.4q0-25.38,9.447-43.992A66.82,66.82,0,0,1,820.9-150.87q17.2-9.87,39.762-9.87,28.2,0,43.428,14.805t15.792,42.159q0,18.612-2.256,27.636h-91.65q1.128,25.662,12.126,39.9T869.406-22a75.775,75.775,0,0,0,22.7-3.666q11.7-3.666,18.471-8.742l7.05,15.51q-7.614,8.178-24.675,15.087A91.329,91.329,0,0,1,858.408,3.1Zm22-96.162q.564-7.9.564-12.126,0-37.506-25.1-37.506-13.818,0-21.432,11t-8.46,38.634Z" transform="translate(18621 4636.188)"/></g></svg>